# xmcd
#
# Track frame offsets:
#	150
#	96953
#	191408
#
# Disc length: 4203 seconds
#
# Revision: 1
# Processed by: cddbd v1.5.1PL0 Copyright (c) Steve Scherf et al.
# Submitted via: CDex 1.50Beta5
#
DISCID=1e106903
DTITLE=KID - Memories Off Complete Box[DISC3] A voice actor's record
DYEAR=1900
DGENRE=Game
TTITLE0=メモオフ座談会 テーマ1「想い出」
TTITLE1=メモオフ座談会 テーマ2「最近どう?」
TTITLE2=メモオフ座談会 テーマ3「メモリーズオフ」
EXTD=
EXTT0=
EXTT1=
EXTT2=
PLAYORDER=
